# xmcd
#
# Track frame offsets:
#	167
#	13937
#	23542
#	45550
#	63062
#	76042
#	93015
#	104767
#	116795
#	127185
#	139622
#	150870
#	163525
#	174185
#	187682
#	200620
#	220970
#	231882
#	243940
#	256357
#	269115
#	281375
#	295547
#
# Disc length: 4096 seconds
#
# Revision: 6
# Processed by: cddbd v1.5.2PL0 Copyright (c) Steve Scherf et al.
# Submitted via: EZCDAudioConverter 3.1.5.1
#
DISCID=310ffe17
DTITLE=Various Artist - 'Q' Rhythm and Blues
DYEAR=1993
DGENRE=Blues
TTITLE0=Van Morrison - Brown Eyed Girl
TTITLE1=James Brown - I'll Go Crazy
TTITLE2=Ry Cooder - It's All Over Now
TTITLE3=Rod Stewart - I'd Rather Go Blind
TTITLE4=Ike And Tina Turner - A Fool In Love
TTITLE5=Fleetwood Mac - Doctor Brown
TTITLE6=Chuck Berry - Nadine (Is It You?)
TTITLE7=Inez And Charlie Foxx - Mockingbird
TTITLE8=Fats Domino - Blue Monday
TTITLE9=Solomon Burke - Everybody Needs Somebody To Love
TTITLE10=John Mayall With Eric Clapton - Steppin Out
TTITLE11=Albert King - Born Under The Bad Sign
TTITLE12=The Coasters - Young Blood
TTITLE13=Spencer Davis Group - Gimme Some Lovin'
TTITLE14=Tommy Tucker - High Heeled Sneakers
TTITLE15=The Animals - House Of The Rising Sun
TTITLE16=Shirley And Lee - Let The Good Times Roll
TTITLE17=Little Milton - We're Gonna Make It
TTITLE18=Bo Diddley - Road Runner
TTITLE19=The Kinks - Long Tall Shorty
TTITLE20=Arthur Alexander - You'd Better Move On
TTITLE21=Manfred Mann - Got My Mojo Working
TTITLE22=Little Walter - My Babe
EXTD=
EXTT0=
EXTT1=
EXTT2=
EXTT3=
EXTT4=
EXTT5=
EXTT6=
EXTT7=
EXTT8=
EXTT9=
EXTT10=
EXTT11=
EXTT12=
EXTT13=
EXTT14=
EXTT15=
EXTT16=
EXTT17=
EXTT18=
EXTT19=
EXTT20=
EXTT21=
EXTT22=
PLAYORDER=
